<?xml version="1.0" encoding="iso-8859-1"?>
<!-- Generator: Adobe Illustrator 19.0.0, SVG Export Plug-In . SVG Version: 6.00 Build 0)  -->
<svg version="1.1" id="Layer_1" xmlns="http://www.w3.org/2000/svg" xmlns:xlink="http://www.w3.org/1999/xlink" x="0px" y="0px"
	 viewBox="0 0 512 512" style="enable-background:new 0 0 512 512;" xml:space="preserve">
<g>
	<g>
		<path d="M358.064,238.806c-0.046-0.033-0.093-0.066-0.14-0.098c-10.9-7.541-22.119-13.194-33.355-16.803
			c-11.182-3.579-27.017-6.21-48.411-8.044c-19.994-1.714-34.295-3.336-42.508-4.823c-5.785-1.232-10.828-3.691-15.421-7.524
			c-2.221-1.85-5.174-5.157-5.174-12.498v-11.701c0-20.193,4.047-26.703,5.786-28.563c2.06-2.202,8.067-5.897,25.164-5.897h18.721
			c17.998,0,23.847,3.767,25.515,5.376c2.032,1.964,5.438,7.595,5.438,23.234v4.095c0,13.746,8.54,22.286,22.286,22.286h49.726
			c13.746,0,22.286-8.54,22.286-22.286v-11.116c0-32.102-8.973-58.014-26.672-77.021c-16.128-17.298-37.631-26.909-64.006-28.637
			v-36.5C297.299,8.54,288.76,0,275.013,0h-35.101c-13.747,0-22.286,8.54-22.285,22.286v36.217h-0.094c-5.522,0-10,4.477-10,10
			s4.478,10,10,10h10.094c5.522,0,10-4.477,10-10V22.286c0-1.096,0.122-1.742,0.213-2.073c0.33-0.09,0.976-0.212,2.073-0.212h35.101
			c1.096,0,1.743,0.121,2.073,0.212c0.091,0.33,0.213,0.977,0.213,2.073V68.5c0,5.523,4.478,10,10,10h1.169
			c25.015,0,44.055,7.379,58.204,22.555c14.137,15.181,21.305,36.508,21.305,63.387v11.116c0,1.096-0.122,1.743-0.213,2.073
			c-0.33,0.091-0.976,0.213-2.073,0.213h-49.726c-1.096,0-1.743-0.121-2.073-0.212c-0.091-0.33-0.213-0.977-0.213-2.073v-4.095
			c0-17.799-3.771-30.1-11.541-37.618c-7.668-7.397-20.559-10.993-39.411-10.993h-18.721c-19.062,0-32.072,4.003-39.772,12.238
			c-7.522,8.045-11.178,21.857-11.178,42.223v11.701c0,11.489,4.279,21.125,12.368,27.86c7.094,5.92,15.251,9.877,24.246,11.763
			c0.086,0.017,0.172,0.034,0.259,0.05c8.934,1.629,23.498,3.296,44.521,5.098c19.608,1.682,34.419,4.092,44.013,7.163
			c9.328,2.996,18.751,7.759,28.009,14.155c17.764,12.786,26.77,36.804,26.77,71.39v22.23c0,27.9-7.352,48.728-22.479,63.676
			c-15.155,14.984-35.531,22.267-62.294,22.267h-1.169c-5.522,0-10,4.477-10,10v45.046c0,1.096-0.122,1.742-0.213,2.073
			c-0.33,0.09-0.976,0.212-2.073,0.212h-35.101c-1.096,0-1.743-0.121-2.073-0.212c-0.091-0.33-0.213-0.977-0.213-2.073v-45.046
			c0-5.523-4.478-10-10-10h-4.094c-27.089,0-47.426-7.339-62.175-22.438c-14.813-15.157-22.014-35.929-22.014-63.505v-11.115
			c0-1.096,0.121-1.743,0.212-2.073c0.331-0.09,0.977-0.212,2.072-0.212h49.728c1.094,0,1.741,0.122,2.072,0.212
			c0.091,0.331,0.212,0.977,0.212,2.073v4.096c0,17.886,3.91,30.228,11.949,37.728c7.839,7.323,20.597,10.883,39.003,10.883h23.4
			c18.067,0,30.77-3.789,38.84-11.591c8.15-7.891,12.112-20.957,12.112-39.945v-8.775c0-12.581-4.02-22.715-11.955-30.128
			c-7.069-6.593-15.434-11.136-24.863-13.502c-0.09-0.022-0.181-0.044-0.272-0.064c-7.492-1.659-21.379-3.443-42.458-5.457
			c-19.751-1.878-34.588-4.221-44.1-6.966c-9.1-2.624-18.598-7.21-28.23-13.63c-0.047-0.031-0.094-0.062-0.141-0.092
			c-18.689-12.012-28.166-36.934-28.166-74.075v-21.646c0-20.722,4.047-37.98,12.027-51.293c2.839-4.738,1.3-10.88-3.436-13.719
			c-4.739-2.839-10.88-1.301-13.719,3.436c-9.869,16.464-14.873,37.181-14.873,61.576v21.646c0,44.344,12.544,74.912,37.281,90.854
			c11.319,7.537,22.662,12.974,33.713,16.16c10.85,3.13,26.47,5.636,47.745,7.659c19.833,1.895,33.253,3.591,39.896,5.044
			c6.136,1.562,11.357,4.407,15.948,8.689c3.771,3.522,5.603,8.595,5.603,15.508v8.775c0,17.178-3.775,23.398-6.019,25.571
			c-2.816,2.721-9.426,5.965-24.934,5.965h-23.4c-16.936,0-23.151-3.444-25.354-5.502c-2.091-1.95-5.598-7.545-5.598-23.108v-4.096
			c0-13.746-8.539-22.285-22.284-22.285h-49.728c-13.745,0-22.284,8.539-22.284,22.285v11.115c0,32.6,9.323,58.669,27.709,77.482
			c17.308,17.72,41.028,27.243,70.573,28.351v35.156c0,13.746,8.539,22.286,22.286,22.286h35.101
			c13.747,0,22.286-8.54,22.286-22.286v-35.297c27.789-1.608,50.474-10.938,67.521-27.792
			c18.859-18.635,28.421-44.845,28.421-77.901v-22.23C393.241,285.053,381.406,255.551,358.064,238.806z"/>
	</g>
</g>
<g>
	<g>
		<circle cx="174.99" cy="77.78" r="10"/>
	</g>
</g>
<g>
</g>
<g>
</g>
<g>
</g>
<g>
</g>
<g>
</g>
<g>
</g>
<g>
</g>
<g>
</g>
<g>
</g>
<g>
</g>
<g>
</g>
<g>
</g>
<g>
</g>
<g>
</g>
<g>
</g>
</svg>
